<svg xmlns="http://www.w3.org/2000/svg" viewBox="0 0 91.18 80.66"><defs><style>.cls-1{fill:#d8571e;}.cls-2{fill:#fb631f;}.cls-3{fill:#fff;}</style></defs><g id="Layer_2" data-name="Layer 2"><path class="cls-1" d="M68.55,40.53H19.49L2.33,77.66H68.55a17.36,17.36,0,0,0,2-.12,18.56,18.56,0,0,0-2-37Z"/><path class="cls-2" d="M68.55,3.41H19.49L2.33,40.53H68.55a19.81,19.81,0,0,0,2-.11,18.56,18.56,0,0,0-2-37Z"/><path class="cls-3" d="M69.4,0h-49a3.24,3.24,0,0,0-2.93,1.87L.3,39a3.23,3.23,0,0,0,2.93,4.59H15.32L.3,76.07a3.26,3.26,0,0,0,.21,3.1,3.22,3.22,0,0,0,2.72,1.49H69.4a21.18,21.18,0,0,0,2.4-.14A21.78,21.78,0,0,0,91.18,58.88V21.78A21.8,21.8,0,0,0,69.4,0Zm-47,6.46h47A15.32,15.32,0,0,1,71.1,37a15.84,15.84,0,0,1-1.7.1H8.28ZM82.17,67.35A15.25,15.25,0,0,1,71.1,74.1a15.84,15.84,0,0,1-1.7.1H8.28L22.44,43.56h47A15.33,15.33,0,0,1,82.17,67.35Z"/></g></svg>