<svg xmlns="http://www.w3.org/2000/svg" viewBox="0 0 523.05 80.66"><defs><style>.cls-1{fill:#fff;}.cls-2{fill:#d8571e;}.cls-3{fill:#fb631f;}</style></defs><g id="Layer_2" data-name="Layer 2"><path class="cls-1" d="M155.68,43.66a14.81,14.81,0,0,1,2.81,9.07,15.44,15.44,0,0,1-5.1,11.93q-5.1,4.66-13.39,4.67H115.54v-57h20q7.69,0,12.4,4.23a14.09,14.09,0,0,1,4.71,11,13.28,13.28,0,0,1-4.84,10.71A15.3,15.3,0,0,1,155.68,43.66ZM124.53,20.33V35.71h10.11a9.27,9.27,0,0,0,6.52-2.12,7.33,7.33,0,0,0,2.29-5.66,7,7,0,0,0-2.29-5.57,9.49,9.49,0,0,0-6.52-2Zm22.08,38.58a8.22,8.22,0,0,0,2.63-6.44A8.36,8.36,0,0,0,146.61,46q-2.64-2.41-7.39-2.42H124.53V61.29h14.69Q144,61.29,146.61,58.91Z"/><path class="cls-1" d="M214.11,32.34a21,21,0,0,1,6.61,15.73,21.15,21.15,0,0,1-6.61,15.77,22.86,22.86,0,0,1-31.85,0,21.25,21.25,0,0,1-6.48-15.73,21.22,21.22,0,0,1,6.48-15.73,21.74,21.74,0,0,1,15.9-6.4A22.09,22.09,0,0,1,214.11,32.34Zm-25.32,5.92A13.73,13.73,0,0,0,185,48.15,13.67,13.67,0,0,0,188.75,58a12.38,12.38,0,0,0,9.41,3.93A12.57,12.57,0,0,0,207.58,58a13.53,13.53,0,0,0,3.81-9.81,13.73,13.73,0,0,0-3.76-9.89,13,13,0,0,0-18.84,0Z"/><path class="cls-1" d="M255.34,28.58a20.17,20.17,0,0,1,7.38,7.21l-6.39,5q-4.57-6.48-11.41-6.49a12.59,12.59,0,0,0-9.55,4,13.67,13.67,0,0,0-3.76,9.77A13.73,13.73,0,0,0,235.37,58a12.65,12.65,0,0,0,9.55,3.93q6.75,0,11.41-6.39l6.39,4.92q-6.14,9.85-17.89,9.86a21.86,21.86,0,0,1-15.94-6.44,21.3,21.3,0,0,1-6.52-15.77,21.14,21.14,0,0,1,6.52-15.73,21.9,21.9,0,0,1,15.94-6.4A20.85,20.85,0,0,1,255.34,28.58Z"/><path class="cls-1" d="M366.22,30.56q4.18,4.64,4.19,12.23V69.33h-9.16V44.09a10.38,10.38,0,0,0-2.38-7.17,8.15,8.15,0,0,0-6.43-2.68,8.93,8.93,0,0,0-6.74,2.68,9.29,9.29,0,0,0-2.6,6.74V69.33H334V44.09A10.35,10.35,0,0,0,331.61,37a8.26,8.26,0,0,0-6.48-2.72A8.92,8.92,0,0,0,318.38,37a10,10,0,0,0-2.59,7.13V69.33h-9.07V26.89h8.47V31q4.57-5,12.27-5,8.82,0,12.88,6.66,5.18-6.66,14.34-6.66Q362,25.94,366.22,30.56Z"/><path class="cls-1" d="M405.94,30.52q4.76,4.59,4.75,13.14V69.33h-8.47V64.58q-4.74,5.7-13.57,5.7-6.64,0-10.71-3.37A11,11,0,0,1,373.88,58a10.59,10.59,0,0,1,4.23-8.81q4.23-3.28,11.41-3.29h12V43.14c0-2.94-.79-5.18-2.37-6.74a9.15,9.15,0,0,0-6.7-2.33q-6.4,0-11.76,6.3L375.43,35q6.39-9.08,17.89-9.08Q401.18,25.94,405.94,30.52Zm-7.6,29.9a9.21,9.21,0,0,0,3.19-7.17v-.78H390.64q-7.51,0-7.52,5.19a4.8,4.8,0,0,0,2.08,4.15,9.06,9.06,0,0,0,5.36,1.47A11.26,11.26,0,0,0,398.34,60.42Z"/><path class="cls-1" d="M493.75,51.09H462.12a12.62,12.62,0,0,0,4.58,8.21A14.43,14.43,0,0,0,476,62.24a18.37,18.37,0,0,0,12.35-5l4.33,6.22a24,24,0,0,1-16.94,6.83,22.41,22.41,0,0,1-16.34-6.35,21.22,21.22,0,0,1-6.48-15.78,21.61,21.61,0,0,1,6.35-15.77,21.09,21.09,0,0,1,15.6-6.44,19.16,19.16,0,0,1,14.05,5.53,18.83,18.83,0,0,1,5.57,13.92A25.73,25.73,0,0,1,493.75,51.09ZM466.66,36.44A13.25,13.25,0,0,0,462.29,44h23.07a9.94,9.94,0,0,0-3.19-7.57,11.06,11.06,0,0,0-7.69-2.81A11.73,11.73,0,0,0,466.66,36.44Z"/><path class="cls-1" d="M523.05,26.89v8h-2.77a13.1,13.1,0,0,0-8.9,3.07q-3.54,3.07-3.54,8.68V69.33h-9.08V26.89h8.47v5.54a14.63,14.63,0,0,1,12.36-6A12.85,12.85,0,0,1,523.05,26.89Z"/><rect class="cls-1" x="162.3" y="10.48" width="9.07" height="58.85"/><rect class="cls-1" x="266.7" y="10.48" width="9.07" height="58.85"/><polygon class="cls-1" points="303.86 26.89 292.63 26.89 276.04 45.48 294.44 69.33 305.33 69.33 286.75 45.56 303.86 26.89"/><rect class="cls-1" x="417.26" y="10.48" width="9.07" height="58.85"/><polygon class="cls-1" points="454.42 26.89 443.19 26.89 426.6 45.48 445 69.33 455.89 69.33 437.31 45.56 454.42 26.89"/><path class="cls-2" d="M68.55,40.53H19.49L2.33,77.66H68.55a17.36,17.36,0,0,0,2-.12,18.56,18.56,0,0,0-2-37Z"/><path class="cls-3" d="M68.55,3.41H19.49L2.33,40.53H68.55a19.81,19.81,0,0,0,2-.11,18.56,18.56,0,0,0-2-37Z"/><path class="cls-1" d="M69.4,0h-49a3.24,3.24,0,0,0-2.93,1.87L.3,39a3.23,3.23,0,0,0,2.93,4.59H15.32L.3,76.07a3.26,3.26,0,0,0,.21,3.1,3.22,3.22,0,0,0,2.72,1.49H69.4a21.18,21.18,0,0,0,2.4-.14A21.78,21.78,0,0,0,91.18,58.88V21.78A21.8,21.8,0,0,0,69.4,0Zm-47,6.46h47A15.32,15.32,0,0,1,71.1,37a15.84,15.84,0,0,1-1.7.1H8.28ZM82.17,67.35A15.25,15.25,0,0,1,71.1,74.1a15.84,15.84,0,0,1-1.7.1H8.28L22.44,43.56h47A15.33,15.33,0,0,1,82.17,67.35Z"/></g></svg>